<?xml version="1.0" encoding="utf-8"?>
<!-- Generator: Adobe Illustrator 16.0.3, SVG Export Plug-In . SVG Version: 6.00 Build 0)  -->
<!DOCTYPE svg PUBLIC "-//W3C//DTD SVG 1.1//EN" "http://www.w3.org/Graphics/SVG/1.1/DTD/svg11.dtd">
<svg version="1.1" id="Camada_1" xmlns="http://www.w3.org/2000/svg" xmlns:xlink="http://www.w3.org/1999/xlink" x="0px" y="0px"
	 width="271.367px" height="255.634px" viewBox="159.466 344.655 271.367 255.634"
	 enable-background="new 159.466 344.655 271.367 255.634" xml:space="preserve">
<g id="Fundo" display="none">
	<path display="inline" d="M416.281,441.185c13.58,21.888,19.45,53.353,9.742,81.179c-5.438,15.584-15.334,25.623-34.909,45.056
		c-36.293,36.037-60.345,59.923-88.488,57.229c-17.793-1.702-14.502-11.854-58.448-33.69c-29.688-14.747-37.414-13.21-47.493-25.167
		c-11.397-13.528-6.713-21.683-16.643-57.229c-12.288-44.015-24.309-48.837-19.485-64.944c3.041-10.163,9.236-12.942,54.799-42.215
		c45.836-29.449,48.614-32.449,61.289-36.127c11.946-3.462,43.764-12.692,69.995,2.334c8.746,5.005,7.942,7.596,32.694,34.602
		c29.216,31.875,30.234,28.168,36.937,38.97L416.281,441.185z"/>
</g>
<g id="Dado">
	<polygon points="296.473,382.127 347.49,459.804 394.044,442.3 	"/>
	<path d="M393.099,543.697l0.803-86.211c0.068-7.323-7.226-12.437-14.087-9.88l-21.438,8.006c-5.898,2.204-8.523,9.088-5.58,14.655
		l37.693,71.306c0.535,1.014,0.764,2.146,1.081,3.252c0.148,0.522,1.504-0.563,1.521-1.128H393.099L393.099,543.697z"/>
	<polygon fill="#9F2CBF" points="296.473,382.127 193.407,436.384 243.884,456.233 	"/>
	<polygon fill="#C04BF2" points="347.244,459.77 243.884,456.233 296.473,382.127 	"/>
	<polygon fill="#C04BF2" points="193.407,436.384 191.033,538.044 243.884,456.233 	"/>
	<path d="M391.868,544.962l-102.854,55.688c0,0-0.018,0-0.018-0.013l1.73-50.659l101.124-5.056c0,0,0.034,0.028,0.012,0.04H391.868
		L391.868,544.962z"/>
	<polygon points="191.033,538.044 288.996,600.659 290.734,549.979 	"/>
	<polygon fill="#9F2CBF" points="243.884,456.233 290.734,549.979 191.033,538.044 	"/>
	<path d="M347.244,459.77l-56.512,90.208l101.096-5.056c0.058,0,0.092-0.063,0.068-0.114L347.244,459.77L347.244,459.77z"/>
	<polygon fill="#73168C" points="243.884,456.233 290.734,549.979 347.244,459.77 	"/>
</g>
<g id="Pele">
	<path fill="#281259" d="M321.338,396.932l-8.905-4.253c0,0-23.453,45.472-23.146,45.169c0.308-0.302,11.951,2.71,11.951,2.71
		l21.238-5.466c0,0,3.958-32.974,3.656-33.281c-0.303-0.307-4.789-4.879-4.789-4.879"/>
	<path fill="#281259" d="M314.876,498.887l4.861-7.271l74.072,48.107c0,0,0.404,4.896-4.187,6.451c-4.589,1.554,0,0,0,0
		s-34.835-0.165-35.278-0.067C350.053,547.012,314.876,498.887,314.876,498.887"/>
	<path fill="#281259" d="M215.523,530.254c0.263,0.16,0.985,0.758,1.064,0.837c1.714,1.714,3.969,2.079,15.323,4.362
		c6.563,1.32,10.19,1.344,13.215,1.491c0.792,0.04,1.925,0.063,2.738,0.107c4.807,0.269,9.907,0.604,14.94,0.883
		c0.695,0.04,1.372,0.113,2.078,0.132c8.137,0.188,15.824,0.632,21.057,0.568c3.342-0.04,5.682-0.575,6.496-0.568
		c-0.882,20.742-1.771,41.479-2.653,62.223l-0.785,0.354l-97.963-62.594l0.608-26.322c0,0,1.264-3.542,6.439-0.957
		c0.08,0.188,0.192,0.484,0.393,0.884c0.81,1.64,2.027,4.544,4.493,7.521c0.131,0.159,0.028,0.269,0.176,0.495
		c1.852,2.818,4.499,4.902,5.302,5.489c0.113,0.08,0.679,0.684,1.146,1.048c2.004,1.56,3.985,2.875,5.938,4.06L215.523,530.254z"/>
</g>
<g id="Cauda">
	<path fill="#070926" d="M262.811,537.936c-2.335,3.508-6.264,10.448-7.306,20.049c-1.412,12.971,4.129,21.488,6.139,25.189
		c-2.551-1.565-3.991-2.54-5.17-3.297c-1.709-1.104-2.717-1.736-3.866-2.472c-1.538-0.984-3.542-2.231-6.279-4.009
		c-1.378-2.056-8.188-9.605-6.049-21.604c1.465-8.17,5.519-12.521,7.585-14.741c4.972,0.33,9.971,0.553,14.94,0.883L262.811,537.936
		L262.811,537.936z"/>
	<path fill="#070926" d="M225.442,560.033c-0.608-0.968-6.148-6.696-2.817-15.55c2.124-5.638,6.041-8.383,7.636-9.378
		c-4.669-1.271-9.008-2.744-13.677-4.016c-1.396,0.428-5.648,1.932-8.729,6.292c-3.684,5.21-1.924,9.048-1.748,10.295
		c6.561,4.266,12.777,8.098,19.337,12.361L225.442,560.033L225.442,560.033z"/>
	<path fill="#070926" d="M215.523,530.254c-1.02,0.229-6.542,1.241-9.964,7.044c-2.836,4.807-1.321,8.022-1.1,9.32
		c-4.333-2.778-8.188-5.228-12.521-8.005c0.85-1.938,1.839-5.33,7.009-8.814c4.709-3.178,8.514-3.462,10.632-3.609
		c1.827,1.326,4.11,2.732,5.938,4.06L215.523,530.254z"/>
	<path fill="#070926" d="M245.125,536.944c-1.776,2.077-6.924,8.648-7.493,18.545c-0.489,8.496,3.923,13.262,5.341,15.75
		c-4.851-2.979-9.987-6.47-14.838-9.48c-0.644-1.076-7.26-8.752-2.773-18.494c1.841-3.997,4.692-6.479,6.55-7.812
		C236.317,535.948,240.724,536.449,245.125,536.944z"/>
	<path fill="#070926" d="M208.44,525.146c-2.215,0.232-6.417,0.984-10.777,3.814c-5.107,3.313-5.62,7.055-6.628,9.082
		c0.051-3.639,0.232-7.619,0.262-11.359c0.046-1.646-0.091-4.009,4.855-5.877c2.813-1.059,5.336-1.201,6.987-1.148
		C204.904,521.485,206.669,523.313,208.44,525.146L208.44,525.146z"/>
	<path fill="#070926" d="M288.996,600.637c-3.018-3.308-10.658-11.99-11.519-30.524c-0.734-15.88,5.858-27.398,8.461-31.481
		c-8.859-0.284-12.195-0.284-21.057-0.568c-2.334,3.774-5.637,10.261-6.747,18.903c-1.839,14.331,4.624,24.313,6.873,28.391
		c9.235,5.857,14.747,9.423,23.981,15.281L288.996,600.637L288.996,600.637z"/>
	<path fill="#070926" d="M191.836,503.715c-0.154,3.923-0.04,4.082-0.193,8.006c0.051-0.107,0.137-0.262,0.269-0.428
		c0.659-0.848,1.695-1.024,2.3-1.127c1.794-0.308,3.223,0.285,3.872,0.598c-1.271-2.095-2.539-4.971-3.811-7.07
		c-0.473-0.53-1.781-3.815-2.352-3.616c-0.018,0.325-0.063,3.474-0.085,3.645V503.715z"/>
	<path fill="#070926" d="M198.475,511.646c1.572,2.261,2.916,5.261,4.493,7.521c-1.515-0.137-3.771-0.381-6.571,0.7
		c-4.128,1.589-4.605,2.836-5.039,4.391c0.104-2.677,0.165-8.832,0.269-11.502c0.33-0.427,1.024-1.207,2.175-1.646
		c2.295-0.877,4.396,0.363,4.675,0.541L198.475,511.646L198.475,511.646z"/>
</g>
<g id="Barriga">
	<path fill="#070926" d="M290.558,599.151l102.087-55.322c1.258-0.621-2.142,0.119-3.081,0.107
		c-9.435-0.126-21.784,0.313-37.853-9.31c-20.756-12.431-30.179-31.101-34.659-38.918c-8.313,12.412-19.969,23.743-26.283,37.545
		c-2.152,4.703-9.127,15.322-9.537,30.747c-0.528,19.986,6.405,31.653,9.326,35.154V599.151L290.558,599.151z"/>
	<path fill="#070926" d="M302.145,436.601c1.236-0.222,11.582,1.651,19.007-16.62c7.066-17.405-0.621-24.552-1.959-25.452
		c3.679,2.46,45.159,13.409,72.654,31.897c4.954,3.331,7.869,8.951,7.817,14.918c-0.257,28.715-4.702,79.658-5.112,98.472
		c-0.08,3.74-3.001,3.633-6.736,3.388c-37.967-2.471-58.004-26.716-74.101-57.172C303.591,466.875,301.314,447.932,302.145,436.601
		L302.145,436.601z"/>
</g>
<g id="Tatu_Cabeça">
	<path fill="#281259" d="M254.361,349.535c0,0-13.848,20.362,6.726,30.286c0,0,6.885-8.051,20.795-8.877
		c0,0-2.961-11.399-14.662-11.417C267.218,359.527,258.136,356.646,254.361,349.535L254.361,349.535z"/>
	<path fill="#070926" d="M234.939,436.407c-0.944-0.349-1.497-0.968-1.207-1.275c3.753-3.969,12.071-17.104,12.688-27.081
		c0.558-9.035,13.051-48.489,59.648-38.564c3.889,0.826,7.077,3.638,8.387,7.414c2.097,6.047,2.995,15.356-7.214,21.887
		c-0.739,0.474-1.601,0.746-2.477,0.791l-18.608,0.95c-4.696,0.24-9.154,2.262-12.36,5.724c-2.915,3.147-6.252,7.67-8.523,13.552
		c-3.685,9.537-11.844,13.934-15.602,15.511c-1.15,0.483-2.898,1.24-3.985,1.549c-1.589,0.456-3.798,0.684-6.827,0.313
		c-1.867-0.228-2.744-0.403-3.918-0.773L234.939,436.407L234.939,436.407z"/>
	<path fill="#281259" d="M308.647,381.836c0,0,3.012,9.725-10.568,15.857c-1.753,0.791-3.507,0.996-4.333,0.957
		c-3.563-0.172-13.096-0.434-18.208,2.078c-1.537,0.758-4.425,3.086-6.001,6.645c-1.562,3.531-3.377,6.555-9.167,15.414
		c-0.068,0.103-0.138,0.199-0.218,0.29c-1.332,1.532-7.476,5.888-17.224,7.682c-1.748,0.318-5.905,2.237-7.135,3.171l-1.424,0.832
		c-0.734,0.364-0.979,1.064-0.398,1.651c2.352,2.368,7.01,5.176,10.647,6.394c0.358,0.12,4.396,1.156,4.776,1.174
		c2.511,0.107,8.239,0.388,15.823-0.113c1.1-0.074,3.434-0.404,4.572-0.514c0.354-0.033,0.706-0.079,1.06-0.131l21.271-3.098
		c0.358-0.017,4.526-0.99,4.868-1.093c4.709-1.401,35.997-12.141,20.311-51.075c-1.127-2.796,0.786-5.882,3.78-6.03
		c0.165-0.006,0.336-0.018,0.514-0.023c1.924-0.057,3.809-0.552,5.494-1.48c3.985-2.204,10.38-6.89,10.527-14.36l-0.188-17.076
		c-0.029-2.619-2.318-4.618-4.903-4.299c-10.237,1.258-33.571,2.716-23.892,37.147H308.647z"/>
	<path fill="#C04BF2" d="M284.972,401.537c2.517,0.809-0.889,4.76-5.381,7.42c-3.997,2.361-11.832,6.814-9.065,2.01
		c2.934-5.096,2.124-4.197,3.76-6.662c3.251-4.914,6.798-4.014,10.688-2.762L284.972,401.537L284.972,401.537z"/>
	<path fill="#C04BF2" d="M233.726,436.088c0.78,1.031,2.017,2.409,3.24,2.779c0.364,0.106,0.734-0.046,0.945-0.359
		c0.712-1.07,2.117-3.639,2.105-5.363c0-0.678-0.723-1.104-1.281-0.718c-1.104,0.77-3.046,1.999-4.589,2.393
		c-0.558,0.143-0.763,0.819-0.416,1.28L233.726,436.088z"/>
</g>
</svg>
