<?xml version="1.0" encoding="utf-8"?>
<!-- Generator: Adobe Illustrator 16.0.3, SVG Export Plug-In . SVG Version: 6.00 Build 0)  -->
<!DOCTYPE svg PUBLIC "-//W3C//DTD SVG 1.1//EN" "http://www.w3.org/Graphics/SVG/1.1/DTD/svg11.dtd">
<svg version="1.1" id="Camada_1" xmlns="http://www.w3.org/2000/svg" xmlns:xlink="http://www.w3.org/1999/xlink" x="0px" y="0px"
	 width="271.367px" height="255.635px" viewBox="0 0 271.367 255.635" enable-background="new 0 0 271.367 255.635"
	 xml:space="preserve">
<g id="Fundo" display="none">
	<path display="inline" d="M416.281,441.185c13.58,21.888,19.449,53.353,9.742,81.179c-5.438,15.584-15.334,25.623-34.91,45.058
		c-36.293,36.035-60.344,59.923-88.486,57.229c-17.794-1.702-14.503-11.854-58.449-33.688
		c-29.688-14.747-37.414-13.21-47.492-25.167c-11.396-13.528-6.713-21.685-16.644-57.229c-12.288-44.015-24.31-48.837-19.485-64.944
		c3.041-10.161,9.236-12.94,54.799-42.215c45.836-29.448,48.615-32.448,61.289-36.127c11.946-3.462,43.764-12.691,69.996,2.334
		c8.746,5.006,7.941,7.597,32.693,34.603c29.217,31.876,30.234,28.169,36.938,38.971L416.281,441.185z"/>
</g>
<g id="Dado">
	<polygon points="136.809,37.287 187.826,114.964 234.381,97.461 	"/>
	<path d="M233.436,198.857l0.803-86.211c0.068-7.323-7.227-12.437-14.088-9.88l-21.438,8.006c-5.898,2.204-8.523,9.088-5.58,14.655
		l37.693,71.306c0.535,1.016,0.764,2.146,1.08,3.252c0.148,0.522,1.504-0.563,1.521-1.128H233.436L233.436,198.857z"/>
	<polygon fill="#D8B800" points="136.809,37.287 33.743,91.545 84.22,111.393 	"/>
	<polygon fill="#F2D129" points="187.58,114.93 84.22,111.393 136.809,37.287 	"/>
	<polygon fill="#F2D129" points="33.743,91.545 31.369,193.205 84.22,111.393 	"/>
	<path d="M232.203,200.123L129.35,255.81c0,0-0.018,0-0.018-0.013l1.73-50.659l101.123-5.056c0,0,0.035,0.026,0.012,0.04
		L232.203,200.123L232.203,200.123z"/>
	<polygon points="31.369,193.205 129.332,255.819 131.07,205.139 	"/>
	<polygon fill="#D8B800" points="84.22,111.393 131.07,205.139 31.369,193.205 	"/>
	<path d="M187.58,114.93l-56.512,90.208l101.096-5.056c0.059,0,0.092-0.063,0.068-0.114L187.58,114.93L187.58,114.93z"/>
	<polygon fill="#A87C00" points="84.22,111.393 131.07,205.139 187.58,114.93 	"/>
</g>
<g id="Pele">
	<path fill="#16377A" d="M161.674,52.108l-8.904-4.253c0,0-23.453,45.473-23.146,45.169c0.31-0.302,11.95,2.71,11.95,2.71
		l21.238-5.466c0,0,3.957-32.975,3.656-33.28c-0.305-0.309-4.789-4.88-4.789-4.88"/>
	<path fill="#16377A" d="M155.213,154.063l4.859-7.271l74.072,48.106c0,0,0.404,4.896-4.189,6.451c-4.588,1.554,0,0,0,0
		s-34.834-0.165-35.275-0.067C190.389,202.188,155.213,154.063,155.213,154.063"/>
	<path fill="#16377A" d="M55.859,185.43c0.263,0.159,0.983,0.758,1.063,0.837c1.714,1.714,3.971,2.079,15.323,4.361
		c6.563,1.319,10.188,1.345,13.215,1.491c0.792,0.04,1.925,0.063,2.737,0.106c4.808,0.27,9.906,0.604,14.939,0.883
		c0.695,0.04,1.372,0.113,2.078,0.133c8.137,0.188,15.824,0.632,21.057,0.567c3.342-0.04,5.684-0.575,6.496-0.567
		c-0.881,20.741-1.771,41.479-2.652,62.223l-0.784,0.354l-97.963-62.594l0.606-26.322c0,0,1.264-3.542,6.439-0.957
		c0.08,0.188,0.191,0.484,0.393,0.885c0.812,1.641,2.027,4.544,4.493,7.521c0.132,0.159,0.028,0.27,0.177,0.495
		c1.853,2.817,4.498,4.901,5.301,5.488c0.113,0.08,0.681,0.685,1.146,1.049c2.004,1.56,3.984,2.875,5.938,4.06L55.859,185.43z"/>
</g>
<g id="Cauda">
	<path fill="#0B2559" d="M103.146,193.096c-2.334,3.508-6.264,10.448-7.306,20.049c-1.411,12.971,4.129,21.488,6.14,25.189
		c-2.551-1.565-3.992-2.54-5.17-3.297c-1.709-1.104-2.718-1.736-3.867-2.474c-1.537-0.982-3.541-2.229-6.277-4.009
		c-1.378-2.056-8.188-9.604-6.051-21.604c1.467-8.17,5.521-12.521,7.587-14.74c4.972,0.33,9.971,0.553,14.938,0.883L103.146,193.096
		L103.146,193.096z"/>
	<path fill="#0B2559" d="M65.777,215.193c-0.607-0.968-6.147-6.694-2.816-15.55c2.124-5.638,6.041-8.383,7.637-9.378
		c-4.67-1.271-9.009-2.744-13.678-4.016c-1.396,0.428-5.648,1.932-8.729,6.292c-3.686,5.21-1.924,9.048-1.748,10.295
		c6.561,4.266,12.775,8.098,19.336,12.359L65.777,215.193L65.777,215.193z"/>
	<path fill="#0B2559" d="M55.859,185.415c-1.021,0.229-6.543,1.239-9.965,7.044c-2.836,4.807-1.32,8.021-1.101,9.318
		c-4.333-2.776-8.188-5.228-12.521-8.005c0.851-1.938,1.84-5.33,7.01-8.813c4.709-3.18,8.514-3.462,10.632-3.609
		c1.827,1.326,4.11,2.732,5.938,4.061L55.859,185.415z"/>
	<path fill="#0B2559" d="M85.461,192.104c-1.775,2.077-6.924,8.648-7.493,18.545c-0.489,8.496,3.923,13.263,5.341,15.75
		c-4.851-2.979-9.986-6.47-14.838-9.479c-0.644-1.076-7.26-8.752-2.773-18.494c1.843-3.997,4.693-6.479,6.552-7.813
		C76.652,191.108,81.061,191.609,85.461,192.104z"/>
	<path fill="#0B2559" d="M48.775,180.306c-2.215,0.232-6.416,0.984-10.776,3.814c-5.106,3.313-5.62,7.055-6.628,9.082
		c0.051-3.641,0.232-7.619,0.262-11.359c0.046-1.646-0.091-4.009,4.855-5.877c2.813-1.061,5.336-1.201,6.986-1.148
		C45.24,176.645,47.005,178.473,48.775,180.306L48.775,180.306z"/>
	<path fill="#0B2559" d="M129.332,255.797c-3.018-3.31-10.658-11.99-11.52-30.524c-0.733-15.88,5.857-27.396,8.461-31.479
		c-8.858-0.284-12.194-0.284-21.058-0.568c-2.334,3.774-5.637,10.261-6.747,18.903c-1.839,14.331,4.624,24.313,6.873,28.391
		c9.234,5.857,14.747,9.423,23.98,15.281L129.332,255.797L129.332,255.797z"/>
	<path fill="#0B2559" d="M32.172,158.876c-0.154,3.923-0.04,4.082-0.193,8.006c0.051-0.107,0.137-0.262,0.271-0.428
		c0.657-0.85,1.694-1.024,2.3-1.129c1.794-0.308,3.225,0.285,3.872,0.6c-1.271-2.095-2.539-4.972-3.812-7.07
		c-0.474-0.53-1.78-3.813-2.353-3.616c-0.019,0.325-0.063,3.476-0.085,3.646V158.876L32.172,158.876z"/>
	<path fill="#0B2559" d="M38.811,166.806c1.572,2.261,2.916,5.261,4.493,7.521c-1.515-0.139-3.771-0.383-6.571,0.698
		c-4.127,1.589-4.604,2.836-5.039,4.393c0.104-2.679,0.166-8.832,0.271-11.502c0.33-0.429,1.022-1.207,2.177-1.646
		c2.295-0.877,4.395,0.363,4.674,0.541L38.811,166.806L38.811,166.806z"/>
</g>
<g id="Barriga">
	<path fill="#0B2559" d="M130.893,254.936l102.086-55.322c1.258-0.62-2.141,0.119-3.08,0.107c-9.436-0.126-21.785,0.313-37.854-9.31
		c-20.756-12.433-30.18-31.103-34.658-38.92c-8.314,12.412-19.97,23.743-26.283,37.547c-2.151,4.701-9.127,15.32-9.537,30.745
		c-0.527,19.986,6.404,31.653,9.326,35.154V254.936L130.893,254.936z"/>
	<path fill="#0B2559" d="M142.479,92.386c1.236-0.222,11.582,1.651,19.008-16.62c7.066-17.404-0.621-24.552-1.959-25.452
		c3.678,2.46,45.158,13.409,72.654,31.897c4.953,3.331,7.869,8.951,7.816,14.918c-0.258,28.715-4.701,79.658-5.111,98.472
		c-0.08,3.74-3.002,3.633-6.736,3.388c-37.967-2.471-58.004-26.716-74.102-57.172C143.926,122.659,141.648,103.717,142.479,92.386
		L142.479,92.386z"/>
</g>
<g id="Tatu_Cabeça">
	<path fill="#16377A" d="M94.939,4.696c0,0-13.849,20.361,6.726,30.285c0,0,6.886-8.051,20.795-8.877
		c0,0-2.961-11.398-14.661-11.417C107.795,14.687,98.714,11.806,94.939,4.696L94.939,4.696z"/>
	<path fill="#0B2559" d="M75.518,91.567c-0.945-0.349-1.498-0.968-1.207-1.273c3.752-3.971,12.069-17.104,12.688-27.081
		c0.559-9.035,13.051-48.489,59.648-38.564c3.889,0.826,7.076,3.639,8.387,7.414c2.098,6.048,2.994,15.355-7.215,21.888
		c-0.738,0.475-1.6,0.746-2.477,0.791l-18.607,0.949c-4.696,0.24-9.154,2.263-12.36,5.725c-2.915,3.146-6.252,7.67-8.522,13.553
		c-3.686,9.537-11.844,13.934-15.603,15.511c-1.149,0.483-2.897,1.24-3.985,1.549c-1.588,0.456-3.797,0.686-6.826,0.313
		c-1.867-0.229-2.744-0.403-3.918-0.773H75.518L75.518,91.567z"/>
	<path fill="#16377A" d="M149.225,36.996c0,0,3.012,9.726-10.568,15.856c-1.752,0.791-3.506,0.996-4.332,0.957
		c-3.563-0.172-13.096-0.435-18.209,2.078c-1.536,0.758-4.424,3.086-6,6.646c-1.563,3.53-3.377,6.556-9.168,15.413
		c-0.066,0.104-0.137,0.199-0.217,0.29c-1.332,1.532-7.478,5.89-17.226,7.684c-1.748,0.316-5.903,2.235-7.135,3.171l-1.425,0.832
		c-0.733,0.364-0.979,1.063-0.397,1.649c2.353,2.368,7.011,5.178,10.647,6.396c0.357,0.12,4.396,1.156,4.775,1.174
		c2.51,0.107,8.238,0.388,15.822-0.113c1.1-0.072,3.434-0.402,4.572-0.514c0.354-0.033,0.705-0.079,1.061-0.131l21.271-3.1
		c0.357-0.017,4.525-0.988,4.867-1.093c4.709-1.399,35.996-12.141,20.311-51.074c-1.127-2.796,0.787-5.882,3.779-6.029
		c0.166-0.007,0.336-0.019,0.518-0.023c1.924-0.057,3.809-0.552,5.492-1.479c3.984-2.203,10.379-6.89,10.525-14.359L178.002,4.15
		c-0.029-2.618-2.318-4.617-4.902-4.299c-10.238,1.258-33.572,2.716-23.893,37.146L149.225,36.996L149.225,36.996z"/>
	<path fill="#F2D129" d="M125.55,56.698c2.517,0.81-0.89,4.76-5.382,7.42c-3.997,2.36-11.832,6.813-9.064,2.01
		c2.935-5.096,2.125-4.196,3.76-6.661c3.252-4.914,6.799-4.015,10.688-2.763L125.55,56.698L125.55,56.698z"/>
	<path fill="#F2D129" d="M74.304,91.249c0.779,1.029,2.017,2.407,3.239,2.777c0.363,0.106,0.734-0.046,0.945-0.357
		c0.711-1.07,2.115-3.641,2.104-5.363c0-0.678-0.723-1.104-1.281-0.718c-1.104,0.77-3.045,1.999-4.588,2.393
		c-0.559,0.145-0.764,0.819-0.416,1.28L74.304,91.249z"/>
</g>
</svg>
