<?xml version="1.0" encoding="utf-8"?>
<!-- Generator: Adobe Illustrator 16.0.3, SVG Export Plug-In . SVG Version: 6.00 Build 0)  -->
<!DOCTYPE svg PUBLIC "-//W3C//DTD SVG 1.1//EN" "http://www.w3.org/Graphics/SVG/1.1/DTD/svg11.dtd">
<svg version="1.1" id="Camada_1" xmlns="http://www.w3.org/2000/svg" xmlns:xlink="http://www.w3.org/1999/xlink" x="0px" y="0px"
	 width="271.367px" height="255.635px" viewBox="0 0 271.367 255.635" enable-background="new 0 0 271.367 255.635"
	 xml:space="preserve">
<g id="Fundo" display="none">
	<path display="inline" d="M416.281,441.185c13.58,21.888,19.449,53.353,9.742,81.179c-5.438,15.584-15.334,25.623-34.91,45.057
		c-36.293,36.036-60.344,59.923-88.486,57.229c-17.794-1.702-14.503-11.854-58.449-33.689
		c-29.688-14.747-37.414-13.21-47.492-25.167c-11.397-13.528-6.713-21.684-16.644-57.229c-12.288-44.015-24.31-48.837-19.485-64.944
		c3.041-10.162,9.236-12.941,54.799-42.215c45.836-29.449,48.615-32.449,61.289-36.127c11.946-3.462,43.764-12.692,69.996,2.334
		c8.746,5.005,7.941,7.596,32.693,34.602c29.217,31.876,30.234,28.169,36.938,38.971L416.281,441.185z"/>
</g>
<g id="Dado">
	<polygon points="141.933,37.287 192.95,114.965 239.505,97.461 	"/>
	<path d="M238.56,198.857l0.803-86.211c0.068-7.323-7.227-12.437-14.088-9.88l-21.438,8.006c-5.898,2.204-8.523,9.088-5.58,14.655
		l37.693,71.306c0.535,1.015,0.764,2.146,1.08,3.252c0.148,0.522,1.504-0.563,1.521-1.128H238.56L238.56,198.857z"/>
	<polygon fill="#740101" points="141.933,37.287 38.867,91.545 89.344,111.393 	"/>
	<polygon fill="#B60404" points="192.704,114.93 89.344,111.393 141.933,37.287 	"/>
	<polygon fill="#B60404" points="38.867,91.545 36.493,193.205 89.344,111.393 	"/>
	<path d="M237.327,200.123L134.474,255.81c0,0-0.018,0-0.018-0.013l1.73-50.659l101.123-5.056c0,0,0.035,0.027,0.012,0.04H237.327
		L237.327,200.123z"/>
	<polygon points="36.493,193.205 134.456,255.819 136.194,205.139 	"/>
	<polygon fill="#740101" points="89.344,111.393 136.194,205.139 36.493,193.205 	"/>
	<path d="M192.704,114.93l-56.512,90.208l101.096-5.056c0.059,0,0.092-0.063,0.068-0.114L192.704,114.93L192.704,114.93z"/>
	<polygon fill="#410000" points="89.344,111.393 136.194,205.139 192.704,114.93 	"/>
</g>
<g id="Pele">
	<path fill="#200000" d="M166.798,52.093l-8.904-4.253c0,0-23.453,45.472-23.146,45.169c0.309-0.302,11.951,2.71,11.951,2.71
		l21.238-5.466c0,0,3.957-32.975,3.656-33.281c-0.305-0.308-4.789-4.879-4.789-4.879"/>
	<path fill="#200000" d="M160.337,154.048l4.859-7.271l74.072,48.107c0,0,0.404,4.896-4.188,6.451c-4.588,1.554,0,0,0,0
		s-34.834-0.165-35.277-0.067C195.513,202.173,160.337,154.048,160.337,154.048"/>
	<path fill="#200000" d="M60.983,185.415c0.263,0.159,0.984,0.758,1.063,0.837c1.714,1.714,3.97,2.079,15.323,4.361
		c6.563,1.32,10.189,1.345,13.215,1.491c0.792,0.04,1.925,0.063,2.738,0.107c4.807,0.269,9.906,0.604,14.939,0.883
		c0.695,0.04,1.372,0.113,2.078,0.132c8.137,0.188,15.824,0.632,21.057,0.568c3.342-0.04,5.683-0.575,6.496-0.568
		c-0.881,20.742-1.771,41.479-2.652,62.223l-0.785,0.354L36.493,193.21l0.607-26.322c0,0,1.264-3.542,6.439-0.957
		c0.08,0.188,0.191,0.484,0.393,0.884c0.811,1.641,2.027,4.544,4.493,7.521c0.132,0.159,0.028,0.269,0.177,0.495
		c1.852,2.817,4.498,4.901,5.301,5.488c0.113,0.08,0.68,0.685,1.146,1.049c2.004,1.56,3.985,2.875,5.938,4.06L60.983,185.415z"/>
</g>
<g id="Cauda">
	<path fill="#0D0D0D" d="M108.271,193.096c-2.334,3.508-6.264,10.448-7.306,20.049c-1.411,12.971,4.129,21.488,6.14,25.189
		c-2.551-1.565-3.992-2.54-5.17-3.297c-1.709-1.104-2.718-1.736-3.867-2.473c-1.537-0.983-3.541-2.23-6.278-4.009
		c-1.378-2.056-8.188-9.604-6.05-21.604c1.466-8.17,5.52-12.521,7.586-14.741c4.972,0.33,9.971,0.553,14.939,0.883L108.271,193.096
		L108.271,193.096z"/>
	<path fill="#0D0D0D" d="M70.901,215.193c-0.607-0.968-6.147-6.695-2.816-15.55c2.124-5.638,6.041-8.383,7.637-9.378
		c-4.67-1.271-9.009-2.744-13.678-4.016c-1.396,0.428-5.648,1.932-8.729,6.292c-3.685,5.21-1.924,9.048-1.748,10.295
		c6.561,4.266,12.776,8.098,19.336,12.36L70.901,215.193L70.901,215.193z"/>
	<path fill="#0D0D0D" d="M60.983,185.415c-1.021,0.229-6.543,1.24-9.965,7.044c-2.836,4.807-1.32,8.021-1.1,9.319
		c-4.333-2.777-8.188-5.228-12.521-8.005c0.851-1.938,1.84-5.33,7.01-8.813c4.709-3.179,8.514-3.462,10.632-3.609
		c1.827,1.326,4.11,2.732,5.938,4.06L60.983,185.415z"/>
	<path fill="#0D0D0D" d="M90.585,192.104c-1.775,2.077-6.924,8.648-7.493,18.545c-0.489,8.496,3.923,13.263,5.341,15.75
		c-4.851-2.979-9.986-6.47-14.838-9.479c-0.644-1.076-7.26-8.752-2.773-18.494c1.842-3.997,4.693-6.479,6.551-7.813
		C81.776,191.108,86.185,191.609,90.585,192.104z"/>
	<path fill="#0D0D0D" d="M53.899,180.306c-2.215,0.232-6.416,0.984-10.776,3.814c-5.106,3.313-5.62,7.055-6.628,9.082
		c0.051-3.64,0.232-7.619,0.262-11.359c0.046-1.646-0.091-4.009,4.855-5.877c2.813-1.06,5.336-1.201,6.986-1.148
		C50.364,176.645,52.129,178.473,53.899,180.306L53.899,180.306z"/>
	<path fill="#0D0D0D" d="M134.456,255.798c-3.018-3.309-10.658-11.99-11.52-30.524c-0.733-15.88,5.858-27.397,8.461-31.48
		c-8.858-0.284-12.194-0.284-21.057-0.568c-2.334,3.774-5.637,10.261-6.747,18.903c-1.839,14.331,4.624,24.313,6.873,28.391
		c9.235,5.857,14.747,9.423,23.981,15.281L134.456,255.798L134.456,255.798z"/>
	<path fill="#0D0D0D" d="M37.296,158.876c-0.154,3.923-0.04,4.082-0.193,8.006c0.051-0.107,0.137-0.262,0.27-0.428
		c0.658-0.849,1.695-1.024,2.3-1.128c1.794-0.308,3.224,0.285,3.872,0.599c-1.271-2.095-2.539-4.972-3.811-7.07
		c-0.474-0.53-1.781-3.814-2.353-3.616c-0.019,0.325-0.063,3.475-0.085,3.646V158.876L37.296,158.876z"/>
	<path fill="#0D0D0D" d="M43.935,166.806c1.572,2.261,2.916,5.261,4.493,7.521c-1.515-0.138-3.771-0.382-6.571,0.699
		c-4.127,1.589-4.604,2.836-5.039,4.392c0.104-2.678,0.166-8.832,0.27-11.502c0.33-0.428,1.023-1.207,2.176-1.646
		c2.295-0.877,4.395,0.363,4.674,0.541L43.935,166.806L43.935,166.806z"/>
</g>
<g id="Barriga">
	<path fill="#0D0D0D" d="M136.019,255.311l102.086-55.322c1.258-0.62-2.141,0.119-3.08,0.107c-9.436-0.126-21.785,0.313-37.854-9.31
		c-20.756-12.432-30.18-31.102-34.658-38.919c-8.314,12.412-19.97,23.743-26.283,37.546c-2.152,4.702-9.127,15.321-9.537,30.746
		c-0.528,19.986,6.404,31.653,9.326,35.154V255.311L136.019,255.311z"/>
	<path fill="#0D0D0D" d="M147.604,92.761c1.236-0.222,11.582,1.651,19.008-16.62c7.066-17.405-0.621-24.552-1.959-25.452
		c3.678,2.46,45.158,13.409,72.654,31.897c4.953,3.331,7.869,8.951,7.816,14.918c-0.258,28.715-4.701,79.658-5.111,98.472
		c-0.08,3.74-3.002,3.633-6.736,3.388c-37.967-2.471-58.004-26.716-74.102-57.172C149.052,123.035,146.774,104.093,147.604,92.761
		L147.604,92.761z"/>
</g>
<g id="Tatu_Cabeça">
	<path fill="#200000" d="M99.821,4.695c0,0-13.848,20.362,6.726,30.286c0,0,6.886-8.051,20.795-8.877
		c0,0-2.961-11.399-14.661-11.417C112.678,14.687,103.597,11.806,99.821,4.695L99.821,4.695z"/>
	<path fill="#0D0D0D" d="M80.399,91.567c-0.944-0.349-1.498-0.968-1.207-1.274c3.752-3.97,12.07-17.104,12.688-27.081
		c0.559-9.035,13.051-48.489,59.648-38.564c3.889,0.826,7.076,3.638,8.387,7.414c2.098,6.047,2.994,15.355-7.215,21.887
		c-0.738,0.475-1.6,0.746-2.477,0.791l-18.607,0.95c-4.696,0.24-9.154,2.262-12.36,5.724c-2.915,3.147-6.252,7.67-8.522,13.553
		c-3.686,9.537-11.844,13.934-15.603,15.511c-1.149,0.483-2.897,1.24-3.985,1.549c-1.588,0.456-3.797,0.685-6.826,0.313
		c-1.867-0.229-2.744-0.403-3.918-0.773L80.399,91.567L80.399,91.567z"/>
	<path fill="#200000" d="M154.106,36.996c0,0,3.012,9.726-10.568,15.857c-1.752,0.791-3.506,0.996-4.332,0.957
		c-3.563-0.172-13.096-0.435-18.208,2.078c-1.537,0.758-4.425,3.086-6.001,6.645c-1.563,3.531-3.377,6.556-9.167,15.414
		c-0.067,0.104-0.138,0.199-0.218,0.29c-1.332,1.532-7.477,5.889-17.225,7.683c-1.748,0.317-5.904,2.236-7.135,3.171l-1.424,0.832
		c-0.734,0.364-0.979,1.063-0.398,1.65c2.353,2.368,7.01,5.177,10.647,6.395c0.358,0.12,4.396,1.156,4.776,1.174
		c2.51,0.107,8.238,0.388,15.822-0.113c1.1-0.073,3.434-0.403,4.572-0.514c0.354-0.033,0.706-0.079,1.061-0.131l21.271-3.099
		c0.358-0.017,4.526-0.989,4.868-1.093c4.709-1.4,35.996-12.141,20.311-51.075c-1.127-2.796,0.787-5.882,3.779-6.029
		c0.166-0.007,0.336-0.019,0.516-0.023c1.924-0.057,3.809-0.552,5.494-1.48c3.984-2.203,10.379-6.89,10.525-14.359l-0.188-17.076
		c-0.029-2.619-2.318-4.618-4.902-4.299c-10.238,1.258-33.572,2.716-23.893,37.146H154.106z"/>
	<path fill="#B60404" d="M130.433,56.697c2.516,0.81-0.89,4.76-5.382,7.42c-3.997,2.361-11.832,6.814-9.065,2.01
		c2.935-5.096,2.125-4.196,3.761-6.661c3.251-4.914,6.798-4.015,10.688-2.763L130.433,56.697L130.433,56.697z"/>
	<path fill="#B60404" d="M79.187,91.249c0.779,1.03,2.017,2.408,3.239,2.778c0.364,0.106,0.734-0.046,0.945-0.358
		c0.712-1.07,2.116-3.64,2.104-5.363c0-0.678-0.723-1.104-1.281-0.718c-1.104,0.77-3.045,1.999-4.588,2.393
		c-0.559,0.144-0.764,0.819-0.416,1.28L79.187,91.249z"/>
</g>
</svg>
