<svg id="visual" viewBox="0 0 960 540" width="960" height="540" xmlns="http://www.w3.org/2000/svg" xmlns:xlink="http://www.w3.org/1999/xlink" version="1.1"><rect x="0" y="0" width="960" height="540" fill="#281259"></rect><path d="M0 353L96 353L96 337L192 337L192 321L288 321L288 293L384 293L384 301L480 301L480 324L576 324L576 333L672 333L672 320L768 320L768 306L864 306L864 351L960 351L960 338L960 0L960 0L864 0L864 0L768 0L768 0L672 0L672 0L576 0L576 0L480 0L480 0L384 0L384 0L288 0L288 0L192 0L192 0L96 0L96 0L0 0Z" fill="#9f2cbf"></path><path d="M0 283L96 283L96 251L192 251L192 286L288 286L288 272L384 272L384 250L480 250L480 266L576 266L576 284L672 284L672 306L768 306L768 303L864 303L864 311L960 311L960 250L960 0L960 0L864 0L864 0L768 0L768 0L672 0L672 0L576 0L576 0L480 0L480 0L384 0L384 0L288 0L288 0L192 0L192 0L96 0L96 0L0 0Z" fill="#7b2ea9"></path><path d="M0 262L96 262L96 209L192 209L192 224L288 224L288 209L384 209L384 221L480 221L480 262L576 262L576 256L672 256L672 257L768 257L768 218L864 218L864 229L960 229L960 227L960 0L960 0L864 0L864 0L768 0L768 0L672 0L672 0L576 0L576 0L480 0L480 0L384 0L384 0L288 0L288 0L192 0L192 0L96 0L96 0L0 0Z" fill="#5a2c91"></path><path d="M0 164L96 164L96 210L192 210L192 221L288 221L288 189L384 189L384 218L480 218L480 176L576 176L576 179L672 179L672 170L768 170L768 204L864 204L864 167L960 167L960 211L960 0L960 0L864 0L864 0L768 0L768 0L672 0L672 0L576 0L576 0L480 0L480 0L384 0L384 0L288 0L288 0L192 0L192 0L96 0L96 0L0 0Z" fill="#3d2777"></path><path d="M0 148L96 148L96 153L192 153L192 119L288 119L288 129L384 129L384 142L480 142L480 145L576 145L576 131L672 131L672 125L768 125L768 128L864 128L864 167L960 167L960 151L960 0L960 0L864 0L864 0L768 0L768 0L672 0L672 0L576 0L576 0L480 0L480 0L384 0L384 0L288 0L288 0L192 0L192 0L96 0L96 0L0 0Z" fill="#25205c"></path><path d="M0 108L96 108L96 109L192 109L192 93L288 93L288 99L384 99L384 122L480 122L480 79L576 79L576 83L672 83L672 111L768 111L768 85L864 85L864 87L960 87L960 118L960 0L960 0L864 0L864 0L768 0L768 0L672 0L672 0L576 0L576 0L480 0L480 0L384 0L384 0L288 0L288 0L192 0L192 0L96 0L96 0L0 0Z" fill="#121741"></path><path d="M0 62L96 62L96 46L192 46L192 37L288 37L288 37L384 37L384 49L480 49L480 41L576 41L576 65L672 65L672 68L768 68L768 58L864 58L864 72L960 72L960 46L960 0L960 0L864 0L864 0L768 0L768 0L672 0L672 0L576 0L576 0L480 0L480 0L384 0L384 0L288 0L288 0L192 0L192 0L96 0L96 0L0 0Z" fill="#070927"></path></svg>