<svg xmlns="http://www.w3.org/2000/svg" version="1.1" xmlns:xlink="http://www.w3.org/1999/xlink" xmlns:svgjs="http://svgjs.dev/svgjs" width="1440" height="560" preserveAspectRatio="none" viewBox="0 0 1440 560"><g mask="url(&quot;#SvgjsMask4858&quot;)" fill="none"><rect width="1440" height="560" x="0" y="0" fill="url(&quot;#SvgjsLinearGradient4859&quot;)"></rect><use xlink:href="#SvgjsSymbol4866" x="0" y="0"></use><use xlink:href="#SvgjsSymbol4866" x="720" y="0"></use></g><defs><mask id="SvgjsMask4858"><rect width="1440" height="560" fill="#ffffff"></rect></mask><linearGradient x1="50%" y1="0%" x2="50%" y2="100%" gradientUnits="userSpaceOnUse" id="SvgjsLinearGradient4859"><stop stop-color="rgba(7, 9, 39, 1)" offset="0"></stop><stop stop-color="rgba(40, 18, 89, 1)" offset="0.64"></stop></linearGradient><path d="M-1 0 a1 1 0 1 0 2 0 a1 1 0 1 0 -2 0z" id="SvgjsPath4865"></path><path d="M-3 0 a3 3 0 1 0 6 0 a3 3 0 1 0 -6 0z" id="SvgjsPath4863"></path><path d="M-5 0 a5 5 0 1 0 10 0 a5 5 0 1 0 -10 0z" id="SvgjsPath4860"></path><path d="M2 -2 L-2 2z" id="SvgjsPath4862"></path><path d="M6 -6 L-6 6z" id="SvgjsPath4861"></path><path d="M30 -30 L-30 30z" id="SvgjsPath4864"></path></defs><symbol id="SvgjsSymbol4866"><use xlink:href="#SvgjsPath4860" x="30" y="30" stroke="rgba(115, 22, 140, 1)"></use><use xlink:href="#SvgjsPath4861" x="30" y="90" stroke="rgba(159, 44, 191, 1)"></use><use xlink:href="#SvgjsPath4862" x="30" y="150" stroke="rgba(115, 22, 140, 1)"></use><use xlink:href="#SvgjsPath4863" x="30" y="210" stroke="rgba(115, 22, 140, 1)"></use><use xlink:href="#SvgjsPath4860" x="30" y="270" stroke="rgba(159, 44, 191, 1)"></use><use xlink:href="#SvgjsPath4864" x="30" y="330" stroke="rgba(115, 22, 140, 1)" stroke-width="3"></use><use xlink:href="#SvgjsPath4860" x="30" y="390" stroke="rgba(115, 22, 140, 1)"></use><use xlink:href="#SvgjsPath4862" x="30" y="450" stroke="rgba(115, 22, 140, 1)"></use><use xlink:href="#SvgjsPath4861" x="30" y="510" stroke="rgba(159, 44, 191, 1)"></use><use xlink:href="#SvgjsPath4860" x="30" y="570" stroke="rgba(159, 44, 191, 1)"></use><use xlink:href="#SvgjsPath4861" x="90" y="30" stroke="rgba(159, 44, 191, 1)"></use><use xlink:href="#SvgjsPath4860" x="90" y="90" stroke="rgba(115, 22, 140, 1)"></use><use xlink:href="#SvgjsPath4860" x="90" y="150" stroke="rgba(115, 22, 140, 1)"></use><use xlink:href="#SvgjsPath4864" x="90" y="210" stroke="rgba(159, 44, 191, 1)" stroke-width="3"></use><use xlink:href="#SvgjsPath4861" x="90" y="270" stroke="rgba(115, 22, 140, 1)"></use><use xlink:href="#SvgjsPath4861" x="90" y="330" stroke="rgba(159, 44, 191, 1)"></use><use xlink:href="#SvgjsPath4860" x="90" y="390" stroke="rgba(115, 22, 140, 1)"></use><use xlink:href="#SvgjsPath4862" x="90" y="450" stroke="rgba(159, 44, 191, 1)"></use><use xlink:href="#SvgjsPath4862" x="90" y="510" stroke="rgba(115, 22, 140, 1)"></use><use xlink:href="#SvgjsPath4865" x="90" y="570" stroke="rgba(115, 22, 140, 1)"></use><use xlink:href="#SvgjsPath4862" x="150" y="30" stroke="rgba(115, 22, 140, 1)"></use><use xlink:href="#SvgjsPath4861" x="150" y="90" stroke="rgba(115, 22, 140, 1)"></use><use xlink:href="#SvgjsPath4863" x="150" y="150" stroke="rgba(115, 22, 140, 1)"></use><use xlink:href="#SvgjsPath4863" x="150" y="210" stroke="rgba(159, 44, 191, 1)"></use><use xlink:href="#SvgjsPath4862" x="150" y="270" stroke="rgba(159, 44, 191, 1)"></use><use xlink:href="#SvgjsPath4860" x="150" y="330" stroke="rgba(159, 44, 191, 1)"></use><use xlink:href="#SvgjsPath4860" x="150" y="390" stroke="rgba(115, 22, 140, 1)"></use><use xlink:href="#SvgjsPath4862" x="150" y="450" stroke="rgba(159, 44, 191, 1)"></use><use xlink:href="#SvgjsPath4864" x="150" y="510" stroke="rgba(159, 44, 191, 1)" stroke-width="3"></use><use xlink:href="#SvgjsPath4861" x="150" y="570" stroke="rgba(115, 22, 140, 1)"></use><use xlink:href="#SvgjsPath4862" x="210" y="30" stroke="rgba(159, 44, 191, 1)"></use><use xlink:href="#SvgjsPath4865" x="210" y="90" stroke="rgba(159, 44, 191, 1)"></use><use xlink:href="#SvgjsPath4860" x="210" y="150" stroke="rgba(115, 22, 140, 1)"></use><use xlink:href="#SvgjsPath4860" x="210" y="210" stroke="rgba(159, 44, 191, 1)"></use><use xlink:href="#SvgjsPath4861" x="210" y="270" stroke="rgba(115, 22, 140, 1)"></use><use xlink:href="#SvgjsPath4861" x="210" y="330" stroke="rgba(115, 22, 140, 1)"></use><use xlink:href="#SvgjsPath4860" x="210" y="390" stroke="rgba(159, 44, 191, 1)"></use><use xlink:href="#SvgjsPath4861" x="210" y="450" stroke="rgba(115, 22, 140, 1)"></use><use xlink:href="#SvgjsPath4861" x="210" y="510" stroke="rgba(159, 44, 191, 1)"></use><use xlink:href="#SvgjsPath4865" x="210" y="570" stroke="rgba(159, 44, 191, 1)"></use><use xlink:href="#SvgjsPath4863" x="270" y="30" stroke="rgba(159, 44, 191, 1)"></use><use xlink:href="#SvgjsPath4862" x="270" y="90" stroke="rgba(159, 44, 191, 1)"></use><use xlink:href="#SvgjsPath4862" x="270" y="150" stroke="rgba(159, 44, 191, 1)"></use><use xlink:href="#SvgjsPath4862" x="270" y="210" stroke="rgba(115, 22, 140, 1)"></use><use xlink:href="#SvgjsPath4865" x="270" y="270" stroke="rgba(115, 22, 140, 1)"></use><use xlink:href="#SvgjsPath4860" x="270" y="330" stroke="rgba(115, 22, 140, 1)"></use><use xlink:href="#SvgjsPath4861" x="270" y="390" stroke="rgba(115, 22, 140, 1)"></use><use xlink:href="#SvgjsPath4863" x="270" y="450" stroke="rgba(159, 44, 191, 1)"></use><use xlink:href="#SvgjsPath4862" x="270" y="510" stroke="rgba(115, 22, 140, 1)"></use><use xlink:href="#SvgjsPath4860" x="270" y="570" stroke="rgba(115, 22, 140, 1)"></use><use xlink:href="#SvgjsPath4862" x="330" y="30" stroke="rgba(159, 44, 191, 1)"></use><use xlink:href="#SvgjsPath4865" x="330" y="90" stroke="rgba(115, 22, 140, 1)"></use><use xlink:href="#SvgjsPath4865" x="330" y="150" stroke="rgba(159, 44, 191, 1)"></use><use xlink:href="#SvgjsPath4861" x="330" y="210" stroke="rgba(115, 22, 140, 1)"></use><use xlink:href="#SvgjsPath4861" x="330" y="270" stroke="rgba(159, 44, 191, 1)"></use><use xlink:href="#SvgjsPath4861" x="330" y="330" stroke="rgba(115, 22, 140, 1)"></use><use xlink:href="#SvgjsPath4865" x="330" y="390" stroke="rgba(115, 22, 140, 1)"></use><use xlink:href="#SvgjsPath4860" x="330" y="450" stroke="rgba(115, 22, 140, 1)"></use><use xlink:href="#SvgjsPath4860" x="330" y="510" stroke="rgba(159, 44, 191, 1)"></use><use xlink:href="#SvgjsPath4864" x="330" y="570" stroke="rgba(115, 22, 140, 1)" stroke-width="3"></use><use xlink:href="#SvgjsPath4861" x="390" y="30" stroke="rgba(159, 44, 191, 1)"></use><use xlink:href="#SvgjsPath4861" x="390" y="90" stroke="rgba(159, 44, 191, 1)"></use><use xlink:href="#SvgjsPath4860" x="390" y="150" stroke="rgba(159, 44, 191, 1)"></use><use xlink:href="#SvgjsPath4863" x="390" y="210" stroke="rgba(159, 44, 191, 1)"></use><use xlink:href="#SvgjsPath4864" x="390" y="270" stroke="rgba(115, 22, 140, 1)" stroke-width="3"></use><use xlink:href="#SvgjsPath4862" x="390" y="330" stroke="rgba(159, 44, 191, 1)"></use><use xlink:href="#SvgjsPath4863" x="390" y="390" stroke="rgba(159, 44, 191, 1)"></use><use xlink:href="#SvgjsPath4862" x="390" y="450" stroke="rgba(159, 44, 191, 1)"></use><use xlink:href="#SvgjsPath4860" x="390" y="510" stroke="rgba(159, 44, 191, 1)"></use><use xlink:href="#SvgjsPath4863" x="390" y="570" stroke="rgba(115, 22, 140, 1)"></use><use xlink:href="#SvgjsPath4861" x="450" y="30" stroke="rgba(159, 44, 191, 1)"></use><use xlink:href="#SvgjsPath4862" x="450" y="90" stroke="rgba(159, 44, 191, 1)"></use><use xlink:href="#SvgjsPath4863" x="450" y="150" stroke="rgba(115, 22, 140, 1)"></use><use xlink:href="#SvgjsPath4860" x="450" y="210" stroke="rgba(115, 22, 140, 1)"></use><use xlink:href="#SvgjsPath4860" x="450" y="270" stroke="rgba(159, 44, 191, 1)"></use><use xlink:href="#SvgjsPath4864" x="450" y="330" stroke="rgba(115, 22, 140, 1)" stroke-width="3"></use><use xlink:href="#SvgjsPath4861" x="450" y="390" stroke="rgba(115, 22, 140, 1)"></use><use xlink:href="#SvgjsPath4860" x="450" y="450" stroke="rgba(159, 44, 191, 1)"></use><use xlink:href="#SvgjsPath4862" x="450" y="510" stroke="rgba(115, 22, 140, 1)"></use><use xlink:href="#SvgjsPath4862" x="450" y="570" stroke="rgba(159, 44, 191, 1)"></use><use xlink:href="#SvgjsPath4861" x="510" y="30" stroke="rgba(159, 44, 191, 1)"></use><use xlink:href="#SvgjsPath4860" x="510" y="90" stroke="rgba(159, 44, 191, 1)"></use><use xlink:href="#SvgjsPath4863" x="510" y="150" stroke="rgba(159, 44, 191, 1)"></use><use xlink:href="#SvgjsPath4864" x="510" y="210" stroke="rgba(159, 44, 191, 1)" stroke-width="3"></use><use xlink:href="#SvgjsPath4861" x="510" y="270" stroke="rgba(115, 22, 140, 1)"></use><use xlink:href="#SvgjsPath4861" x="510" y="330" stroke="rgba(115, 22, 140, 1)"></use><use xlink:href="#SvgjsPath4860" x="510" y="390" stroke="rgba(115, 22, 140, 1)"></use><use xlink:href="#SvgjsPath4862" x="510" y="450" stroke="rgba(115, 22, 140, 1)"></use><use xlink:href="#SvgjsPath4861" x="510" y="510" stroke="rgba(115, 22, 140, 1)"></use><use xlink:href="#SvgjsPath4860" x="510" y="570" stroke="rgba(115, 22, 140, 1)"></use><use xlink:href="#SvgjsPath4863" x="570" y="30" stroke="rgba(115, 22, 140, 1)"></use><use xlink:href="#SvgjsPath4861" x="570" y="90" stroke="rgba(159, 44, 191, 1)"></use><use xlink:href="#SvgjsPath4861" x="570" y="150" stroke="rgba(115, 22, 140, 1)"></use><use xlink:href="#SvgjsPath4861" x="570" y="210" stroke="rgba(115, 22, 140, 1)"></use><use xlink:href="#SvgjsPath4861" x="570" y="270" stroke="rgba(159, 44, 191, 1)"></use><use xlink:href="#SvgjsPath4864" x="570" y="330" stroke="rgba(159, 44, 191, 1)" stroke-width="3"></use><use xlink:href="#SvgjsPath4860" x="570" y="390" stroke="rgba(115, 22, 140, 1)"></use><use xlink:href="#SvgjsPath4860" x="570" y="450" stroke="rgba(159, 44, 191, 1)"></use><use xlink:href="#SvgjsPath4860" x="570" y="510" stroke="rgba(159, 44, 191, 1)"></use><use xlink:href="#SvgjsPath4860" x="570" y="570" stroke="rgba(115, 22, 140, 1)"></use><use xlink:href="#SvgjsPath4861" x="630" y="30" stroke="rgba(159, 44, 191, 1)"></use><use xlink:href="#SvgjsPath4861" x="630" y="90" stroke="rgba(115, 22, 140, 1)"></use><use xlink:href="#SvgjsPath4862" x="630" y="150" stroke="rgba(115, 22, 140, 1)"></use><use xlink:href="#SvgjsPath4862" x="630" y="210" stroke="rgba(159, 44, 191, 1)"></use><use xlink:href="#SvgjsPath4860" x="630" y="270" stroke="rgba(115, 22, 140, 1)"></use><use xlink:href="#SvgjsPath4861" x="630" y="330" stroke="rgba(115, 22, 140, 1)"></use><use xlink:href="#SvgjsPath4863" x="630" y="390" stroke="rgba(159, 44, 191, 1)"></use><use xlink:href="#SvgjsPath4865" x="630" y="450" stroke="rgba(115, 22, 140, 1)"></use><use xlink:href="#SvgjsPath4860" x="630" y="510" stroke="rgba(159, 44, 191, 1)"></use><use xlink:href="#SvgjsPath4860" x="630" y="570" stroke="rgba(159, 44, 191, 1)"></use><use xlink:href="#SvgjsPath4862" x="690" y="30" stroke="rgba(159, 44, 191, 1)"></use><use xlink:href="#SvgjsPath4863" x="690" y="90" stroke="rgba(159, 44, 191, 1)"></use><use xlink:href="#SvgjsPath4864" x="690" y="150" stroke="rgba(115, 22, 140, 1)" stroke-width="3"></use><use xlink:href="#SvgjsPath4864" x="690" y="210" stroke="rgba(159, 44, 191, 1)" stroke-width="3"></use><use xlink:href="#SvgjsPath4860" x="690" y="270" stroke="rgba(115, 22, 140, 1)"></use><use xlink:href="#SvgjsPath4861" x="690" y="330" stroke="rgba(159, 44, 191, 1)"></use><use xlink:href="#SvgjsPath4862" x="690" y="390" stroke="rgba(159, 44, 191, 1)"></use><use xlink:href="#SvgjsPath4863" x="690" y="450" stroke="rgba(159, 44, 191, 1)"></use><use xlink:href="#SvgjsPath4861" x="690" y="510" stroke="rgba(159, 44, 191, 1)"></use><use xlink:href="#SvgjsPath4862" x="690" y="570" stroke="rgba(159, 44, 191, 1)"></use></symbol></svg>